PathFileType	4	(X/Y/Z)	c:/Users/goper/Files/vsCode/490R/osim_files/C15/C15_SSWS_05.trc
DataRate	CameraRate	NumFrames	NumMarkers	Units                	OrigDataRate	OrigDataStartFrame	OrigNumFrames
250.00	250.00	9	36	mm	250.0	2301	2629
                Frame#	Time	LPSIS			LASIS			LTH1			LTH2			LTH3			LTH4			LLFE			LMFE			LSH1			LSH2			LSH3			LSH4			LLMAL			LMMAL			LCAL			LMTP5			LTOE			LMTP1			RPSIS			RASIS			RTH1			RTH2			RTH3			RTH4			RLFE			RMFE			RSH1			RSH2			RSH3			RSH4			RLMAL			RMMAL			RCAL			RMTP1			RTOE			RMTP5		
		X1	Y1	Z1	X2	Y2	Z2	X3	Y3	Z3	X4	Y4	Z4	X5	Y5	Z5	X6	Y6	Z6	X7	Y7	Z7	X8	Y8	Z8	X9	Y9	Z9	X10	Y10	Z10	X11	Y11	Z11	X12	Y12	Z12	X13	Y13	Z13	X14	Y14	Z14	X15	Y15	Z15	X16	Y16	Z16	X17	Y17	Z17	X18	Y18	Z18	X19	Y19	Z19	X20	Y20	Z20	X21	Y21	Z21	X22	Y22	Z22	X23	Y23	Z23	X24	Y24	Z24	X25	Y25	Z25	X26	Y26	Z26	X27	Y27	Z27	X28	Y28	Z28	X29	Y29	Z29	X30	Y30	Z30	X31	Y31	Z31	X32	Y32	Z32	X33	Y33	Z33	X34	Y34	Z34	X35	Y35	Z35	X36	Y36	Z36

2301	9.20000	0.00000	0.00000	0.00000	-3480.94141	1004.99396	324.06863	-3363.43945	622.43036	379.75378	0.00000	0.00000	0.00000	-3412.27148	623.39648	368.80701	-3407.72095	579.70526	358.32141	-3355.53906	498.29892	341.32504	-3349.02441	486.29407	219.43797	-3269.52881	403.67191	354.60413	-3262.67969	359.04828	360.17166	-3327.30444	384.70319	350.40021	-3308.82690	342.91199	353.68518	-3215.06519	100.84827	283.41592	-3233.76025	128.14952	194.64311	-3145.14014	77.54864	243.43680	-3330.40747	49.17495	295.89969	-3386.13867	70.69569	231.37569	-3343.34912	45.66088	176.25894	0.00000	0.00000	0.00000	-3471.82056	1003.12152	74.74688	-3514.20850	644.05090	-2.16891	-3533.15552	601.19501	4.27383	-3567.68994	662.23938	10.19631	-3578.98193	615.60229	11.52408	-3579.45557	520.49689	33.54017	-3586.14844	496.98709	150.01152	0.00000	0.00000	0.00000	0.00000	0.00000	0.00000	-3588.49634	412.52820	8.98519	-3590.60669	369.70428	4.04753	0.00000	0.00000	0.00000	-3692.36694	144.79935	129.88112	0.00000	0.00000	0.00000	0.00000	0.00000	0.00000	-753.00616	734.80225	2444.95312	0.00000	0.00000	0.00000
2302	9.20400	0.00000	0.00000	0.00000	-3484.59741	1004.49762	323.94965	-3364.35596	622.10657	379.09552	0.00000	0.00000	0.00000	-3414.50977	623.16846	368.82767	-3409.81372	579.45917	358.38007	-3357.33081	498.29495	341.30753	-3351.09668	486.06198	219.37302	-3270.80615	404.02466	354.38345	-3263.73608	359.35522	360.00598	-3328.46509	384.73083	350.37692	-3310.95117	343.41052	354.14716	-3215.59888	102.00169	284.19482	-3234.17944	128.48555	194.56117	-3145.29810	77.92846	243.37833	-3332.10425	50.21461	298.75226	-3386.21313	70.68972	231.39815	-3343.36890	45.67916	176.27225	0.00000	0.00000	0.00000	-3476.25098	1002.63275	74.60155	-3516.28857	642.66412	-2.39726	-3535.19971	599.66571	3.83419	-3570.03418	660.53949	9.94749	-3581.05640	613.81146	11.02462	-3581.76709	519.12439	33.58614	-3588.38184	495.71353	150.31837	0.00000	0.00000	0.00000	0.00000	0.00000	0.00000	-3592.47510	411.58972	8.94476	-3595.34009	368.80835	4.01018	0.00000	0.00000	0.00000	-3701.35449	145.74820	129.92438	0.00000	0.00000	0.00000	0.00000	0.00000	0.00000	-752.98755	734.82996	2444.94165	0.00000	0.00000	0.00000
2303	9.20800	0.00000	0.00000	0.00000	-3488.34106	1004.00287	323.77921	-3366.60229	622.07306	378.94934	0.00000	0.00000	0.00000	-3416.76221	622.86115	368.84619	-3411.85522	579.18042	358.40826	-3357.31738	497.48886	340.56461	0.00000	0.00000	0.00000	-3271.91406	404.30835	354.05911	-3260.10547	359.52988	356.24155	-3328.98120	384.61176	349.97742	-3310.81519	343.13385	353.60947	-3215.48315	101.76386	283.25995	-3234.59473	128.85065	194.50404	-3145.36841	78.37553	243.19771	-3332.07739	50.20192	298.74759	-3386.30640	70.68265	231.41614	-3343.39429	45.70233	176.29781	0.00000	0.00000	0.00000	-3480.61694	1002.08789	74.44075	-3518.62036	641.40967	-2.68270	0.00000	0.00000	0.00000	-3572.47534	658.88171	9.56457	-3583.29932	612.16626	10.48779	-3584.01733	517.77124	33.57619	-3590.58716	494.50647	150.59875	0.00000	0.00000	0.00000	0.00000	0.00000	0.00000	-3596.50269	410.71344	8.91981	-3600.13086	367.98566	3.90502	0.00000	0.00000	0.00000	-3710.07275	146.81644	130.06224	0.00000	0.00000	0.00000	0.00000	0.00000	0.00000	-752.99677	734.85651	2444.88892	0.00000	0.00000	0.00000
2304	9.21200	-3325.35059	1024.10388	258.32266	-3492.10059	1003.49158	323.60938	-3370.31787	622.49207	379.30661	-3362.60254	578.29962	364.30887	-3419.03369	622.52808	368.83850	-3414.01538	578.86127	358.42480	-3359.34253	497.42447	340.45541	-3355.60596	485.72366	219.36320	-3273.57227	404.70789	353.98010	-3261.76953	359.89609	356.25787	-3331.06909	384.82257	350.28540	-3312.00171	343.26968	353.55435	-3215.65210	102.21519	283.14392	-3234.96826	129.17136	194.46249	-3145.47363	78.88292	243.02086	-3330.40161	49.50700	298.25293	-3386.40088	70.66109	231.46407	-3343.39185	45.71471	176.32674	0.00000	0.00000	0.00000	-3484.92334	1001.49609	74.19516	-3521.29272	640.28735	-2.97919	0.00000	0.00000	0.00000	-3575.11914	657.36511	9.21352	-3585.68579	610.58643	10.04562	-3586.52051	516.51178	33.49185	-3592.82788	493.37433	150.85606	0.00000	0.00000	0.00000	0.00000	0.00000	0.00000	-3600.51807	409.82812	8.93412	-3604.84448	367.21915	3.93171	0.00000	0.00000	0.00000	-3718.13892	147.69041	130.28163	0.00000	0.00000	0.00000	0.00000	0.00000	0.00000	-752.99835	734.83209	2444.88770	0.00000	0.00000	0.00000
2305	9.21600	0.00000	0.00000	0.00000	-3495.93799	1002.99683	323.39600	-3371.24170	621.90533	378.60754	0.00000	0.00000	0.00000	-3421.36914	622.17926	368.80756	-3416.23120	578.55835	358.42325	-3361.39453	497.27722	340.33011	0.00000	0.00000	0.00000	-3275.07397	405.05896	353.69406	-3263.07422	360.37759	356.05142	-3332.49487	384.87793	350.20581	-3314.39209	343.90311	353.96857	-3215.92310	102.70002	283.07291	-3236.01050	130.40524	195.04204	0.00000	0.00000	0.00000	-3331.44775	50.60180	297.78555	-3385.61401	70.51052	232.71899	-3343.41528	45.72557	176.36829	0.00000	0.00000	0.00000	-3489.31226	1000.93512	73.96741	-3524.07617	639.13483	-3.31966	-3542.42236	595.72540	2.51884	-3577.99805	655.92651	8.88842	-3588.36206	609.10968	9.68989	-3589.01416	515.22211	33.41999	-3595.24658	492.29230	151.09520	0.00000	0.00000	0.00000	0.00000	0.00000	0.00000	-3604.51807	408.99026	8.95321	-3609.46973	366.44116	3.92781	0.00000	0.00000	0.00000	-3726.06104	148.70067	130.62766	0.00000	0.00000	0.00000	0.00000	0.00000	0.00000	-752.99036	734.88220	2444.91431	0.00000	0.00000	0.00000
2306	9.22000	-3338.67236	1020.98175	259.07416	-3499.77002	1002.46460	323.20038	-3373.72266	621.81293	378.39041	0.00000	0.00000	0.00000	-3423.83350	621.84528	368.76968	-3418.95068	578.21521	358.64151	-3363.48853	497.11386	340.18658	0.00000	0.00000	0.00000	-3276.25610	405.15186	353.29663	-3264.45239	360.80008	355.89233	-3333.06348	384.52924	349.72791	-3314.37939	343.42758	353.40302	-3216.60059	103.94923	283.94385	-3236.37109	130.71732	195.00235	0.00000	0.00000	0.00000	-3331.60767	50.67091	297.91281	-3385.67505	70.46024	232.74269	-3343.43213	45.73161	176.38322	0.00000	0.00000	0.00000	-3493.72827	1000.35797	73.74094	-3527.02930	638.00043	-3.60203	-3545.39062	594.52228	2.24969	-3581.06274	654.55664	8.64358	-3591.30054	607.78198	9.47147	-3591.66211	513.93274	33.32847	-3597.72290	491.15472	151.27994	0.00000	0.00000	0.00000	0.00000	0.00000	0.00000	-3608.58667	408.17380	9.01991	-3614.20654	365.77481	4.00865	0.00000	0.00000	0.00000	-3733.46631	149.59787	131.08273	0.00000	0.00000	0.00000	0.00000	0.00000	0.00000	-752.99866	734.89270	2444.92285	0.00000	0.00000	0.00000
2307	9.22400	-3342.61401	1020.33392	258.39719	-3503.62524	1001.94427	322.97534	-3376.19409	621.64148	378.12985	0.00000	0.00000	0.00000	-3426.38306	621.50214	368.71655	-3420.94531	577.88428	358.36652	-3365.71045	496.97379	340.05032	0.00000	0.00000	0.00000	-3278.32422	405.62396	353.20718	-3265.90552	361.12607	355.69925	-3335.59619	384.88193	350.02991	-3315.26562	343.51108	351.61313	-3216.79297	104.42027	283.91550	-3236.26758	130.31654	194.37334	0.00000	0.00000	0.00000	-3331.62305	50.66409	297.93799	-3385.73340	70.40059	232.79976	-3343.45581	45.74044	176.42371	0.00000	0.00000	0.00000	-3498.13672	999.78412	73.50411	-3530.25513	636.95612	-3.89614	0.00000	0.00000	0.00000	-3584.40576	653.38129	8.42316	-3594.50415	606.62189	9.35758	-3594.50903	512.69720	33.25341	-3600.49268	490.18109	151.47125	0.00000	0.00000	0.00000	0.00000	0.00000	0.00000	-3612.57910	407.39185	9.19311	-3618.67578	365.04102	4.20727	0.00000	0.00000	0.00000	-3740.44556	150.42085	131.61412	0.00000	0.00000	0.00000	0.00000	0.00000	0.00000	-753.05554	734.90350	2444.92676	0.00000	0.00000	0.00000
2308	9.22800	0.00000	0.00000	0.00000	-3507.48828	1001.39105	322.77136	-3378.83179	621.53687	377.88080	0.00000	0.00000	0.00000	-3429.03027	621.15143	368.61646	-3423.78540	577.52771	358.50766	-3367.96924	496.75452	339.85242	0.00000	0.00000	0.00000	-3280.10840	405.94312	352.99884	-3267.45044	361.49933	355.46509	-3337.29932	384.86392	349.92737	-3318.37183	344.12582	353.68497	-3217.02075	104.90003	283.87155	-3236.71875	130.67610	194.34271	0.00000	0.00000	0.00000	-3331.64771	50.67942	297.90210	-3385.74561	70.34940	232.85985	-3343.48267	45.77076	176.44705	0.00000	0.00000	0.00000	-3502.48730	999.18231	73.22478	-3533.78247	636.06842	-4.11833	0.00000	0.00000	0.00000	-3587.88037	652.30835	8.27416	-3597.84961	605.56226	9.33608	-3597.37280	511.43701	33.20045	-3603.40723	489.18536	151.68748	0.00000	0.00000	0.00000	0.00000	0.00000	0.00000	-3616.67114	406.67688	9.44337	-3623.27612	364.42105	4.49504	0.00000	0.00000	0.00000	-3746.99683	151.10767	132.25684	0.00000	0.00000	0.00000	0.00000	0.00000	0.00000	-752.99072	734.92859	2444.92310	0.00000	0.00000	0.00000
2309	9.23200	0.00000	0.00000	0.00000	-3511.30176	1000.81036	322.57010	-3382.95874	621.84430	378.13181	0.00000	0.00000	0.00000	-3431.75537	620.82007	368.51532	-3426.07617	577.22626	358.23608	-3370.35791	496.53711	339.69250	-3368.34521	484.41650	218.87720	-3281.95312	406.26959	352.73163	-3268.96265	361.89645	355.26138	-3339.02197	384.81088	349.81134	-3317.85132	343.63373	351.97403	-3216.88843	104.65478	283.01617	-3237.15771	131.04379	194.32213	0.00000	0.00000	0.00000	-3331.90942	50.57819	298.83798	-3385.80786	70.29469	232.89349	-3343.50830	45.78893	176.47293	0.00000	0.00000	0.00000	-3506.83765	998.55945	72.93474	-3537.47559	635.32440	-4.32365	0.00000	0.00000	0.00000	-3591.58789	651.42200	8.14617	-3601.47729	604.69226	9.32514	-3600.35034	510.21594	33.16913	-3606.61646	488.33514	151.95190	0.00000	0.00000	0.00000	0.00000	0.00000	0.00000	-3620.66772	405.97192	9.78705	-3627.62256	363.77353	4.83998	0.00000	0.00000	0.00000	-3753.05713	151.62907	132.90192	0.00000	0.00000	0.00000	0.00000	0.00000	0.00000	-753.02637	734.93201	2444.90137	0.00000	0.00000	0.00000
